<svg width="274" height="240" viewBox="0 0 274 240" fill="none" xmlns="http://www.w3.org/2000/svg">
<path d="M154.9 196.8C158.7 195.5 163 195.4 166.8 195.5C173.5 195.6 179.7 197.3 185.8 200C187 200.5 186.1 202.5 184.9 202.1C179.9 200.5 174.4 200.2 169.2 199.9C165.8 199.7 162.5 199.9 159.3 200.7C170.2 202.7 181.4 203.7 191.3 209.1C193 210 191.8 212.9 190 212.2C183.2 209.4 176.3 207.9 169.3 206.7C169.7 206.9 170.1 207 170.5 207.2C175.7 209.4 181.8 212.4 185.3 217.1C186 218 184.7 218.9 183.9 218.5C179.2 216.1 175 212.9 170.1 210.7C164.4 208.1 158.5 206.8 152.5 205.4C151.5 205.2 151.1 204.2 151.3 203.3C149.8 202.7 148.8 200.6 150.4 199.3C150.6 199.2 150.7 199 150.9 198.9C147.9 187.1 142.4 176.4 137 165.6C138.6 165.4 140.1 165.3 141.7 165.1C147.4 175.1 152.1 185.8 154.9 196.8Z" fill="#9FBDED"/>
<path d="M165.1 93.2002C165 92.8002 164.9 92.5002 164.8 92.2002C165 92.3002 165.2 92.4002 165.4 92.4002C165.3 92.7002 165.2 93.0002 165.1 93.2002Z" fill="#FFDBBD"/>
<path d="M83.2001 132.9C106.8 127.7 125.9 130.3 143.4 112C145.4 110.1 147.4 108 149.3 105.8C148.2 107.7 148.9 109.4 150.2 110.5C150 110.8 149.9 111 149.7 111.3C147.9 114.3 150 117.7 152.9 118.4C152.8 118.7 152.7 119.1 152.5 119.4C151.7 122.1 153.4 124.5 155.7 125.3C155.5 125.9 155.2 126.5 155 127.2C154.5 128.8 154.9 130.2 155.7 131.4C155.6 131.6 155.5 131.8 155.3 132C152.5 136.7 158 141.6 162.5 139.2C162.8 139 163.1 138.9 163.4 138.7C164.2 141.2 166.8 143 169.4 142.6C169.5 142.7 169.5 142.9 169.6 143C168 147.5 172.8 152.8 177.4 149.8C177.9 149.5 178.4 149.1 178.9 148.8C179.9 150.8 182 152.2 184.8 151.2C187.4 150.3 189.8 149.1 192.1 147.7C193.1 148.1 194.1 148.1 195.2 147.6C196.1 147.2 197 146.8 197.9 146.4C197.9 146.6 197.9 146.7 197.9 146.9C184.8 155.9 164 162.3 141.5 165C139.9 165.2 138.4 165.4 136.8 165.5C129.9 166.2 122.8 166.5 115.8 166.4C116.3 163.3 117 160.2 116.7 157.3C116.6 156.3 115.6 155.5 114.7 156.1C111.6 158.1 110.7 162.6 110.2 166.3C88.3001 165.4 67.4 160.7 52.8 151.2C61.6 142.1 73.3001 135.2 83.2001 132.9Z" fill="#FFDBBD"/>
<path d="M4.20001 108.4C10.7 113.6 21.2 114.9 29.1 118.9C23.9 118.9 18.6 121.5 14.7 122.8C20.4 126.8 27.7 129.3 35.4 131.2C38.8 139.4 44.9 146.1 52.9 151.3C61.6 142.1 73.3 135.2 83.3 133C106.9 127.8 126 130.4 143.5 112.1C145.5 110.2 147.5 108.1 149.4 105.9C149.4 105.8 149.5 105.7 149.5 105.6C151.6 102.4 153.7 99.3001 155.8 96.2001C155.7 95.7001 155.7 95.2001 155.9 94.6001C158.3 87.8001 162.8 83.3001 169.3 80.4001C169.6 80.1001 169.9 79.8001 170.2 79.5001C170.8 78.9001 171.5 78.6001 172.1 78.6001C172.1 78.6001 172.1 78.6001 172.1 78.5001C172.2 77.8001 172.4 77.2001 172.7 76.6001C172.8 76.5001 173 76.0001 173.2 75.6001C173.5 74.7001 173.9 73.9001 174.3 73.0001C175.3 70.9001 177.8 70.4001 179.8 71.0001C180.4 70.2001 181 69.3001 181.6 68.4001C182.6 66.7001 183.7 65.0001 184.8 63.3001C186.8 60.0001 190.8 60.8001 192.6 63.1001C194.4 62.2001 196.9 62.8001 198.4 64.4001C200.5 62.4001 203.9 62.7001 205.7 64.5001C206.5 64.5001 207.4 64.7001 208.2 65.0001C208.5 64.4001 208.8 63.9001 209.1 63.3001C210.6 60.5001 213.8 60.4001 215.9 61.9001C217.7 58.3001 222 58.7001 223.9 61.3001C224.1 61.2001 224.3 61.2001 224.5 61.1001C224.6 60.9001 224.7 60.8001 224.7 60.6001C225.5 59.1001 226.7 58.4001 227.9 58.3001C228.9 57.0001 231.5 55.9001 235.6 54.4001L243 54.5001C246.5 20.8001 224.7 -1.49991 188.6 1.00009C161.1 2.30009 136.3 19.3001 116.6 37.6001C102.2 52.0001 89.1 69.0001 70.8 79.5001C65.2 82.5001 58.7 84.8001 52.6 87.5001C32.5 87.9001 5.59998 89.5001 0.0999756 93.9001C11.9 97.8001 22.3 100.4 32.8 104.4C23.8 103.2 13.4 103.2 4.20001 108.4ZM198.4 44.0001C198.4 40.7001 199.8 37.8001 202 35.7001C202.7 34.7001 203.8 33.9001 205.1 33.6001C206.5 33.0001 208.1 32.6001 209.8 32.6001C216.1 32.6001 221.1 37.7001 221.1 43.9001C221.1 50.2001 216 55.2001 209.8 55.2001C203.6 55.2001 198.4 50.2001 198.4 44.0001ZM147.1 72.4001C147.4 70.7001 149 69.2001 150.1 67.9001C151.3 66.5001 152.5 65.2001 153.5 63.6001C155 61.4001 159 62.8001 158 65.5001C156.7 69.0001 154.9 75.2001 150.7 76.0001C148.3 76.6001 146.7 74.7001 147.1 72.4001ZM106.7 73.7001C108 70.3001 112.8 71.6001 112.1 75.2001C111.3 79.8001 108 83.6001 103.7 85.2001C102.3 85.7001 100.7 84.9001 100 83.7001C99 82.0001 99.8 80.3001 101.2 79.2001C103.3 77.7001 105.7 76.4001 106.7 73.7001ZM114.4 57.7001C114.3 58.2001 114.1 58.7001 114 59.2001C113.9 59.5001 113.8 59.9001 113.7 60.2001C113.7 60.3001 113.6 60.4001 113.6 60.5001C113.5 60.1001 113.5 60.3001 113.5 61.2001C112.8 63.0001 111.7 65.4001 109.6 65.8001C107.7 66.2001 105.6 64.9001 105.7 62.8001C105.8 61.0001 106.8 60.0001 107.7 58.7001C108.3 57.8001 109.1 56.7001 109.9 55.7001C110.6 54.8001 111.6 54.2001 112.8 54.5001C114 55.0001 114.8 56.4001 114.4 57.7001ZM132.6 92.5001C135.3 89.7001 139 87.4001 141.2 84.2001C142.2 82.6001 144.4 83.7001 144.1 85.4001C143.4 89.5001 142.8 93.6001 140 96.9001C137.4 100 133.8 104.1 129.5 103.5C128.3 103.3 127.7 102.7 127.6 101.6C127 97.7001 130.1 95.1001 132.6 92.5001ZM126.2 69.6001C127.3 66.4001 130.3 64.4001 132.4 61.8001C133.3 60.7001 135.1 60.6001 136.3 61.3001C137.8 62.2001 138.3 64.2001 137.4 65.7001C136.7 66.9001 136 68.0001 135.3 69.2001C134.5 70.6001 133.6 72.2001 132.3 73.2001C131 74.2001 129.4 74.7001 127.8 73.8001C126.6 72.9001 125.7 71.1001 126.2 69.6001ZM121.7 88.7001C120.5 90.4001 119.8 92.4001 118.6 94.2001C117 96.4001 115.3 99.0001 112.8 100.1C109.1 101.8 105.9 98.4001 107.5 94.8001C108.5 92.4001 110.8 90.5001 112.8 88.9001C114.9 87.2001 117 86.5001 119.4 85.7001C121 84.9001 122.7 87.1001 121.7 88.7001ZM104.2 117.2C105.7 115.5 108 114.2 109.9 112.9C111.9 111.5 113.8 110 115.9 108.9C118 107.8 120.4 109.6 119.9 111.9C118.7 117.3 112.3 123 106.6 123C103.4 123 102.3 119.4 104.2 117.2ZM88 112.5C91.2 109.8 95.6 108.6 98.8 105.9C101 104 104 106.3 102.8 109C100.5 113.9 96.5 118.5 90.8 119.2C87.4 119.6 85.6 114.6 88 112.5ZM76.1 96.8001C76.9 95.4001 78.7 94.7001 80.2 94.1001C82.9 92.9001 85.8 91.7001 87.6 89.4001C89.4 87.1001 92.4 90.0001 91.3 92.3001C90 95.0001 89 97.7001 86.7 99.7001C84.3 101.7 79.4 104.1 76.6 101.3C75.5 100.1 75.2 98.3001 76.1 96.8001ZM62.8 115.9C64.3 113.9 65.4 111.7 66.5 109.5C67.1 108.2 68.8 107.7 70.1 108C71.9 108.5 72.7 110.2 72.3 111.9C71.7 115.1 71 118 68.7 120.4C67.5 121.6 65.6 121.8 64.1 121C62.5 120.1 61.6 117.5 62.8 115.9Z" fill="#F9B170"/>
<path d="M195.4 147.7C194.3 148.2 193.2 148.1 192.3 147.8C190 149.2 187.6 150.4 185 151.3C182.2 152.3 180.2 151 179.1 148.9C178.6 149.2 178.1 149.6 177.6 149.9C173 152.9 168.1 147.6 169.8 143.1C169.7 143 169.6 142.9 169.6 142.7C167 143.1 164.4 141.2 163.6 138.8C163.3 139 163 139.1 162.7 139.3C158.1 141.7 152.6 136.8 155.5 132.1C155.6 131.9 155.7 131.7 155.9 131.5C155 130.3 154.7 128.8 155.2 127.3C155.4 126.7 155.7 126 155.9 125.4C153.6 124.6 151.9 122.2 152.7 119.5C152.8 119.2 152.9 118.8 153.1 118.5C150.2 117.8 148 114.4 149.9 111.4C150.1 111.1 150.2 110.9 150.4 110.6C149.1 109.5 148.4 107.8 149.5 105.9C149.5 105.8 149.6 105.7 149.6 105.6C151.7 102.4 153.8 99.3001 155.9 96.2001C155.8 95.7001 155.8 95.2002 156 94.6002C158.4 87.8002 162.9 83.3001 169.4 80.4001C167.5 82.5001 165.9 85.0001 163.9 87.0001C162.9 88.0001 162.7 89.2001 163.1 90.2001C163.1 90.3001 163.2 90.4001 163.2 90.4001C163.5 91.0001 163.9 91.4001 164.4 91.8001C164.6 91.9001 164.8 92.0002 165 92.1002C165.2 92.4002 165.3 92.8002 165.3 93.1002C165 93.9002 164.7 94.8002 164.3 95.6002C164.3 95.7002 164.2 95.8001 164.2 95.9001C164.2 96.0001 164.1 96.1002 164.1 96.1002C164 96.2002 164 96.3001 164 96.4001C163.8 96.8001 163.7 97.2002 163.7 97.6002C163.6 98.7002 164 99.6001 164.7 100.3C165.3 100.9 166.1 101.3 166.9 101.3C167.1 101.3 167.3 101.3 167.5 101.3C167.3 102.1 167.1 102.9 166.9 103.8C166.7 104.7 166.8 105.6 167.1 106.3C167.3 106.7 167.5 107 167.7 107.3C168.2 107.8 168.8 108.3 169.5 108.5H169.6C169.9 108.6 170.3 108.7 170.6 108.7C170.5 109.1 170.3 109.5 170.2 109.9C170 110.7 170 111.5 170.3 112.1C170.8 113.6 172.1 114.7 173.7 114.8C174.3 114.9 175 114.8 175.7 114.5C175.7 114.7 175.6 114.8 175.6 115C175.5 115.3 175.4 115.6 175.4 115.9C175.3 116.4 175.3 116.8 175.3 117.3C175.4 118.4 175.9 119.4 176.6 120.1C177.4 120.8 178.4 121.2 179.5 121.2H179.6C180.2 121.2 180.9 121 181.5 120.7C182.4 120.3 183.2 119.8 184.1 119.3C184.3 119.9 184.6 120.4 185 120.9C185.1 121.1 185.3 121.2 185.4 121.3C185.6 121.5 185.9 121.7 186.1 121.9C186.3 122 186.4 122.1 186.6 122.2C186.8 122.3 187.1 122.4 187.4 122.5C187.3 123.3 187.2 124.2 187.2 125C187.2 126.1 187.6 127 188.2 127.8C188.4 128 188.5 128.2 188.7 128.3C188.8 128.4 188.9 128.5 189 128.5C190.4 129.5 192.3 129.8 193.8 128.7C194.6 128.2 195.4 127.6 196.1 127C196.1 127 196.1 127.1 196.2 127.1C196.2 127.2 196.3 127.2 196.3 127.3C196.7 127.9 197.2 128.4 197.8 128.7C197.9 128.8 198 128.8 198.1 128.8C199.8 129.6 202 129.4 203.5 128.1C204.1 127.6 204.7 127 205.3 126.4C205.4 126.3 205.6 126.2 205.7 126C205.9 126.1 206.2 126.2 206.4 126.3C207 126.5 207.6 126.6 208.2 126.5C208.6 126.5 209.1 126.4 209.5 126.3C209.7 126.3 209.8 126.2 210 126.2C210.4 127.3 211.1 128.2 212.1 128.8C212.1 128.8 212.2 128.8 212.2 128.9C213 129.4 213.8 129.6 214.7 129.6C212.7 132.4 210.6 135.1 208.4 137.6C207.6 138.5 206.8 139.4 206 140.3C204.9 141.5 203.6 142.7 202.2 143.8C202.3 143.9 202.4 143.9 202.5 144C201.9 144.3 201.3 144.7 200.8 145C200 145.6 199.3 146.1 198.4 146.7C198.4 146.5 198.4 146.4 198.4 146.2C197.3 146.9 196.4 147.3 195.4 147.7Z" fill="#FF9945"/>
<path d="M211.9 129.1C211 128.5 210.3 127.6 209.8 126.5C209.6 126.6 209.5 126.6 209.3 126.6C208.9 126.7 208.4 126.8 208 126.8C207.4 126.8 206.8 126.7 206.2 126.6C206 126.5 205.7 126.4 205.5 126.3C205.4 126.4 205.2 126.5 205.1 126.7C204.5 127.3 203.9 127.8 203.3 128.4C201.8 129.7 199.5 129.9 197.9 129.1C197.8 129.1 197.7 129 197.6 129C197 128.7 196.5 128.2 196.1 127.6C196.1 127.5 196 127.5 196 127.4C196 127.4 196 127.3 195.9 127.3C195.1 127.9 194.4 128.5 193.6 129C192.1 130 190.2 129.7 188.8 128.8C188.7 128.7 188.6 128.6 188.5 128.6C188.3 128.4 188.1 128.3 188 128.1C187.3 127.3 186.9 126.4 187 125.3C187 124.5 187.1 123.6 187.2 122.8C186.9 122.7 186.7 122.6 186.4 122.5C186.2 122.4 186.1 122.3 185.9 122.2C185.6 122 185.4 121.8 185.2 121.6C185.1 121.5 184.9 121.3 184.8 121.2C184.4 120.7 184.1 120.2 183.9 119.6C183.1 120.1 182.2 120.6 181.3 121C180.7 121.3 180 121.5 179.4 121.5H179.3C178.2 121.5 177.2 121.1 176.4 120.4C175.6 119.7 175.1 118.8 175.1 117.6C175.1 117.2 175.1 116.7 175.2 116.2C175.3 115.9 175.4 115.6 175.4 115.3C175.4 115.1 175.5 115 175.5 114.8C174.9 115.1 174.2 115.2 173.5 115.1C172 114.9 170.6 113.8 170.1 112.4C169.9 111.7 169.8 111 170 110.2C170.1 109.8 170.2 109.4 170.4 109C170.1 109 169.7 108.9 169.4 108.8H169.3C168.6 108.6 168 108.2 167.5 107.6C167.2 107.3 167 107 166.9 106.6C166.6 105.9 166.5 105 166.7 104.1C166.9 103.3 167.1 102.4 167.3 101.6C167.1 101.6 166.9 101.6 166.7 101.6C165.8 101.5 165.1 101.2 164.5 100.6C163.8 99.9002 163.4 99.0001 163.5 97.9001C163.5 97.5001 163.6 97.1001 163.8 96.7001C163.8 96.6001 163.9 96.5001 163.9 96.4001C163.9 96.3001 164 96.2001 164 96.2001C164.1 96.1001 164.1 96.0001 164.1 95.9001C164.5 95.1001 164.8 94.3001 165.1 93.4001C165.2 93.1001 165.3 92.9002 165.4 92.6002C165.2 92.5002 165 92.5001 164.8 92.4001C164.6 92.3001 164.4 92.2002 164.2 92.1002C163.7 91.7002 163.3 91.3001 163 90.7001C163 90.6001 162.9 90.5001 162.9 90.5001C162.5 89.5001 162.7 88.3001 163.7 87.3001C165.7 85.3001 167.3 82.8001 169.2 80.7001C169.5 80.4001 169.8 80.1001 170.1 79.8001C170.7 79.2001 171.4 78.9001 172 78.9001C172 79.1001 171.9 79.4001 171.9 79.6001C171.8 79.9001 171.7 80.3001 171.6 80.6001C171.4 81.2001 171.3 81.7001 171.1 82.3001C171.1 82.4001 171.1 82.4001 171.1 82.5001C171 82.9001 170.9 83.4001 170.9 83.8001C170.9 84.2001 171 84.6001 171.1 85.0001C171.3 85.6001 171.6 86.2001 172.1 86.6001C172.6 87.0001 173.1 87.4001 173.7 87.7001C173.7 87.8001 173.7 88.0002 173.6 88.1002C173.5 88.7002 173.5 89.3001 173.4 89.9001C173.4 90.1001 173.4 90.3001 173.4 90.5001C173.4 91.0001 173.4 91.4001 173.5 91.8001C173.8 93.1001 174.7 94.1002 175.8 94.6002C176 94.7002 176.3 94.8001 176.6 94.9001C176.8 95.0001 177.1 95.0002 177.3 95.1002C178.8 95.3002 180.4 95.0001 181.6 93.9001C181.7 93.8001 181.8 93.7001 181.9 93.7001C182.5 94.9001 183.7 95.7001 184.9 96.0001C184.8 96.6001 184.8 97.3001 184.8 97.9001C184.8 98.1001 184.8 98.2001 184.8 98.4001C184.7 101.1 186.5 102.6 188.7 103C188.8 103 188.9 103 189.1 103.1C189.2 103.1 189.2 103.1 189.3 103.1C189.3 103.3 189.2 103.5 189.2 103.7C189.2 103.7 189.2 103.7 189.2 103.8C188.9 106.3 190.7 107.9 192.7 108.3H192.8C193.3 108.4 193.9 108.4 194.4 108.4C194.5 108.7 194.5 109.1 194.6 109.4C194.6 109.5 194.6 109.5 194.6 109.6C194.6 109.8 194.7 110 194.8 110.2C195.4 111.7 196.8 112.6 198.4 112.9C198.7 113 199 113 199.3 113C199.6 113 199.8 113 200.1 112.9H200.2C201.1 112.7 202 112.3 202.6 111.6C203.3 110.8 204 110 204.7 109.2C205.2 109.9 205.9 110.5 206.7 110.9C207 111 207.2 111.1 207.5 111.2C208.3 111.5 209.2 111.6 210 111.4C210.1 111.4 210.1 111.4 210.2 111.4C210.5 111.3 210.9 111.2 211.2 111C211.3 111.6 211.6 112.1 211.9 112.6C212.1 112.9 212.4 113.3 212.7 113.5C213.4 114.1 214.3 114.5 215.3 114.7C215.6 114.7 215.8 114.8 216.1 114.8C216.3 114.8 216.5 114.8 216.7 114.8C216.8 114.8 216.8 114.8 216.9 114.8C218.2 114.6 219.4 113.9 220.2 112.5C220.2 112.4 220.3 112.4 220.3 112.3C221.1 111 221.8 109.8 222.6 108.4C222.7 108.2 222.8 108 222.9 107.9C223.8 108.4 224.9 108.6 226 108.4C226.7 108.3 227.3 108.1 227.9 107.8C227.7 108.3 227.4 108.8 227.2 109.3C227 109.7 226.8 110 226.7 110.4C226.1 111.6 225.5 112.8 224.9 114C224 115.6 223.1 117.3 222.2 118.9C221.4 120.3 220.6 121.6 219.8 123C219.4 123.6 219 124.2 218.6 124.8C218.3 125.3 218 125.8 217.7 126.2C217 127.2 216.4 128.2 215.7 129.2C215.4 129.6 215.1 130 214.8 130.4C213.6 129.9 212.7 129.7 211.9 129.1C211.9 129.1 211.9 129.2 211.9 129.1Z" fill="#332C26"/>
<path d="M222.8 107.2C222.7 107.4 222.6 107.6 222.5 107.7C221.8 109 221 110.3 220.2 111.6C220.2 111.7 220.1 111.7 220.1 111.8C219.3 113.1 218 113.9 216.8 114.1C216.7 114.1 216.7 114.1 216.6 114.1C216.4 114.1 216.2 114.1 216 114.1C215.7 114.1 215.5 114.1 215.2 114C214.3 113.9 213.4 113.4 212.6 112.8C212.3 112.5 212 112.2 211.8 111.9C211.5 111.4 211.3 110.9 211.1 110.3C210.8 110.5 210.5 110.6 210.1 110.7C210 110.7 210 110.7 209.9 110.7C209.1 110.9 208.2 110.8 207.4 110.5C207.1 110.4 206.9 110.3 206.6 110.2C205.8 109.8 205.1 109.2 204.6 108.5C203.9 109.3 203.2 110.1 202.5 110.9C201.9 111.6 201 112 200.1 112.2H200C199.7 112.2 199.5 112.3 199.2 112.3C198.9 112.3 198.6 112.3 198.3 112.2C196.8 111.9 195.3 111 194.7 109.5C194.6 109.3 194.6 109.1 194.5 108.9C194.5 108.8 194.5 108.8 194.5 108.7C194.4 108.4 194.4 108 194.3 107.7C193.7 107.7 193.2 107.7 192.7 107.6H192.6C190.5 107.1 188.8 105.6 189.1 103.1C189.1 103.1 189.1 103.1 189.1 103C189.1 102.8 189.1 102.6 189.2 102.4C189.1 102.4 189.1 102.4 189 102.4C188.9 102.4 188.8 102.4 188.6 102.3C186.5 102 184.7 100.4 184.7 97.7001C184.7 97.5001 184.7 97.4001 184.7 97.2001C184.7 96.6001 184.8 95.9001 184.8 95.3001C183.5 95.0001 182.4 94.2001 181.8 93.0001C181.7 93.1001 181.6 93.2001 181.5 93.2001C180.3 94.3001 178.7 94.6001 177.2 94.4001C176.9 94.4001 176.7 94.3001 176.5 94.2001C176.2 94.1001 176 94.0001 175.7 93.9001C174.6 93.4001 173.8 92.4002 173.4 91.1002C173.3 90.7002 173.3 90.3001 173.3 89.8001C173.3 89.6001 173.3 89.4001 173.3 89.2001C173.3 88.6001 173.4 88.0001 173.5 87.4001C173.5 87.3001 173.5 87.1001 173.6 87.0001C173 86.7001 172.5 86.4001 172 85.9001C171.5 85.4001 171.2 84.9001 171 84.3001C170.9 83.9001 170.8 83.5001 170.8 83.1001C170.8 82.7001 170.8 82.2001 171 81.8001C171 81.7001 171 81.7001 171 81.6001C171.2 81.0001 171.3 80.5001 171.5 79.9001C171.6 79.6001 171.7 79.2001 171.8 78.9001C171.8 78.7001 171.8 78.4001 171.9 78.2001C171.9 78.2001 171.9 78.2001 171.9 78.1001C172 77.4001 172.2 76.8001 172.5 76.2001C172.6 76.1001 172.8 75.6001 173 75.2001C173.3 74.3001 173.7 73.5001 174.1 72.6001C175.1 70.5001 177.6 70.0001 179.6 70.6001C180.2 69.8001 180.8 68.9001 181.4 68.0001C182.4 66.3001 183.5 64.6001 184.6 62.9001C186.6 59.6001 190.6 60.4001 192.4 62.7001C194.2 61.8001 196.7 62.4001 198.2 64.0001C200.3 62.0001 203.7 62.3001 205.5 64.1001C206.3 64.1001 207.2 64.3001 208 64.6001C208.3 64.0001 208.6 63.5001 208.9 62.9001C210.4 60.1001 213.6 60.0001 215.7 61.5001C217.5 57.9001 221.8 58.3001 223.7 60.9001C223.9 60.8001 224.1 60.8001 224.3 60.7001C224.4 60.5001 224.5 60.4001 224.5 60.2001C225.3 58.7001 226.5 58.0001 227.7 57.9001C226.2 59.7001 227.9 61.7001 233 65.3001C234.7 66.4001 237.3 67.6001 240.4 68.7001C240.4 68.7001 240.4 68.7001 240.4 68.8001C240.3 69.6001 240.2 70.4001 240.1 71.2001C239 80.6001 236.1 89.5002 231.4 97.6002C230.9 98.8002 230.4 100 229.9 101.2C229.7 101.7 229.5 102.2 229.2 102.7C228.9 103.3 228.7 103.8 228.4 104.4C228 105.2 227.7 105.9 227.3 106.7C226.7 107 226 107.2 225.4 107.3C224.7 107.9 223.7 107.7 222.8 107.2Z" fill="#9FBDED"/>
<path d="M228 58.4C229 57.1 231.6 56 235.7 54.5L243.1 54.6C250.9 58.3 265.3 69.8 273.7 77.9C266.9 76.8 250.9 73 240.6 69.2C237.5 68 234.9 66.9 233.2 65.8C228.2 62.2 226.5 60.1 228 58.4Z" fill="#FFDBBD"/>
<path d="M202 35.7001C201.4 36.6001 201 37.6001 201 38.7001C201 41.6001 203.3 43.9001 206.2 43.9001C209.1 43.9001 211.4 41.6001 211.4 38.7001C211.4 35.8001 209.1 33.5001 206.2 33.5001C205.8 33.5001 205.4 33.5001 205 33.6001C206.4 33.0001 208 32.6001 209.7 32.6001C216 32.6001 221 37.7001 221 43.9001C221 50.2001 215.9 55.2001 209.7 55.2001C203.5 55.2001 198.4 50.1001 198.4 43.9001C198.4 40.7001 199.8 37.8001 202 35.7001Z" fill="#332C26"/>
<path d="M211.5 38.7C211.5 41.6 209.2 43.9 206.3 43.9C203.4 43.9 201.1 41.6 201.1 38.7C201.1 37.6 201.5 36.5 202.1 35.7C202.8 34.7 203.9 33.9 205.2 33.6C205.6 33.5 206 33.5 206.4 33.5C209.1 33.5 211.5 35.8 211.5 38.7Z" fill="white"/>
<path d="M141.2 84.2001C142.2 82.6001 144.4 83.7001 144.1 85.4001C143.4 89.5001 142.8 93.6001 140 96.9001C137.4 100 133.8 104.1 129.5 103.5C128.3 103.3 127.7 102.7 127.6 101.6C127.1 97.8001 130.2 95.1001 132.7 92.5001C135.3 89.6001 139 87.4001 141.2 84.2001Z" fill="#FF9945"/>
<path d="M112.8 100C109.1 101.7 105.9 98.3 107.5 94.7C108.5 92.3 110.8 90.4 112.8 88.8C114.9 87.1 117 86.4 119.4 85.6C121.1 85 122.8 87.2 121.8 88.7C120.6 90.4 119.9 92.4 118.7 94.2C117 96.3 115.2 98.9 112.8 100Z" fill="#FF9945"/>
<path d="M109.8 112.8C111.8 111.4 113.7 109.9 115.8 108.8C117.9 107.7 120.3 109.5 119.8 111.8C118.6 117.2 112.2 122.9 106.5 122.9C103.3 122.9 102.2 119.3 104.1 117.1C105.7 115.4 108 114.2 109.8 112.8Z" fill="#FF9945"/>
<path d="M98.9001 105.9C101.1 104 104.1 106.3 102.9 109C100.6 113.9 96.6001 118.5 90.9001 119.2C87.5001 119.6 85.7 114.6 88.1 112.5C91.3 109.7 95.6001 108.6 98.9001 105.9Z" fill="#FF9945"/>
<path d="M80.1999 94.1C82.8999 92.9 85.7998 91.7 87.5998 89.4C89.3998 87.1 92.3999 90 91.2999 92.3C89.9999 95 88.9999 97.7 86.6999 99.7C84.2999 101.7 79.3998 104.1 76.5998 101.3C75.3998 100.1 75.0999 98.3 75.9999 96.8C76.9999 95.3 78.7999 94.7 80.1999 94.1Z" fill="#FF9945"/>
<path d="M112.1 75.2C111.3 79.8 108 83.6 103.7 85.2C102.3 85.7 100.7 84.9 100 83.7C99 82 99.8 80.3 101.2 79.2C103.3 77.6 105.7 76.3 106.7 73.7C107.9 70.3 112.8 71.7 112.1 75.2Z" fill="#FF9945"/>
<path d="M132.4 61.8001C133.3 60.7001 135.1 60.6001 136.3 61.3001C137.8 62.2001 138.3 64.2001 137.4 65.7001C136.7 66.9001 136 68.0001 135.3 69.2001C134.5 70.6001 133.6 72.2001 132.3 73.2001C131 74.2001 129.4 74.7001 127.8 73.8001C126.4 73.0001 125.6 71.2001 126.1 69.7001C127.3 66.4001 130.4 64.3001 132.4 61.8001Z" fill="#FF9945"/>
<path d="M150.1 67.9002C151.3 66.5002 152.5 65.2002 153.5 63.6002C155 61.4002 159 62.8002 158 65.5002C156.7 69.0002 154.9 75.2002 150.7 76.0002C148.3 76.5002 146.7 74.6002 147 72.3002C147.3 70.7002 149 69.2002 150.1 67.9002Z" fill="#FF9945"/>
<path d="M114 59.2002C113.9 59.5002 113.8 59.9002 113.7 60.2002C113.7 60.3002 113.6 60.4002 113.6 60.5002C113.5 60.1002 113.5 60.3002 113.5 61.2002C112.8 63.0002 111.7 65.4002 109.6 65.8002C107.7 66.2002 105.6 64.9002 105.7 62.8002C105.8 61.0002 106.8 60.0002 107.7 58.7002C108.3 57.8002 109.1 56.7002 109.9 55.7002C110.6 54.8002 111.6 54.2002 112.8 54.5002C114.1 54.9002 115 56.3002 114.6 57.6002C114.3 58.2002 114.2 58.7002 114 59.2002Z" fill="#FF9945"/>
<path d="M66.5 109.5C67.1 108.2 68.8 107.7 70.1 108C71.9 108.5 72.7 110.2 72.3 111.9C71.7 115.1 71 118 68.7 120.4C67.5 121.6 65.6 121.8 64.1 121C62.5 120 61.5 117.5 62.7 115.8C64.3 113.9 65.4 111.7 66.5 109.5Z" fill="#FF9945"/>
<path d="M114.8 156.2C115.8 155.6 116.7 156.4 116.8 157.4C117.1 160.3 116.4 163.5 115.9 166.5C115.7 167.7 115.6 168.9 115.5 170.1C115.3 176 115.7 182 116.2 187.9C117 197.9 118.5 207.8 118.7 217.8C128.6 217.7 138.2 219.5 146.5 225.4C147.6 226.2 146.6 227.9 145.4 227.2C138.3 223.2 128.5 221.5 120.2 222.2C129.6 224.5 140.3 227.4 147.6 233.4C148.5 234.2 147.5 235.6 146.5 235.3C141.8 234.2 137.3 231.5 132.7 229.8C131 229.2 129.2 228.6 127.5 228.1C130.6 231.1 133.1 234.7 136.2 237.8C137 238.6 135.9 240.1 135 239.4C131.9 237 129 234.5 126.1 231.9C124.6 230.5 122.9 229.2 121.2 228.1C119.9 227.3 118.5 226.8 117.1 226.2C116.8 226.2 116.6 226.1 116.3 226.1C114.9 226 114 225.1 113.9 223.7C113.3 211.3 111.1 199 110.1 186.7C109.6 180.5 109.3 174.2 110.1 168C110.2 167.5 110.2 166.9 110.3 166.4C110.8 162.7 111.7 158.2 114.8 156.2Z" fill="#9FBDED"/>
</svg>
